# xmcd
#
# Track frame offsets:
# 150
# 22715
# 40587
# 63542
# 83972
# 98500
# 120365
# 142417
# 164685
# 182752
# 201617
# 233802
# 258072
# 284850
# 312112
# 323515
#
# Disc length: 4328 seconds
#
#
# Revision: 0
# Processed by: cddbd v1.5.2PL0 Copyright (c) Steve Scherf et al.
# Submitted via: FreeRIP 2.944 
#
DISCID=de10e610
DTITLE=McMurtry-L-Berry4 - Folly-Glory6
DYEAR=2004
DGENRE=Booty Bass
TTITLE0=FG 601
TTITLE1=FG 602
TTITLE2=FG 603
TTITLE3=FG 604
TTITLE4=FG 605
TTITLE5=FG 606
TTITLE6=FG 607
TTITLE7=FG 608
TTITLE8=FG 609
TTITLE9=FG 610
TTITLE10=FG 611
TTITLE11=FG 612
TTITLE12=FG 613
TTITLE13=FG 614
TTITLE14=FG 615
TTITLE15=FG 616
EXTD=Folly and Glory by Larry McMurtry 7 CDs 2004\n4th Berrybender Narrative Simon and Schuster\nread by Alfred Molina - Booty - country
EXTT0=
EXTT1=
EXTT2=
EXTT3=
EXTT4=
EXTT5=
EXTT6=
EXTT7=
EXTT8=
EXTT9=
EXTT10=
EXTT11=
EXTT12=
EXTT13=
EXTT14=
EXTT15=
PLAYORDER=
